<svg xmlns="http://www.w3.org/2000/svg" xmlns:xlink="http://www.w3.org/1999/xlink" width="500" zoomAndPan="magnify" viewBox="0 0 375 374.999991" height="500" preserveAspectRatio="xMidYMid meet" version="1.0"><defs><g/><clipPath id="663a9fd1c0"><path d="M 51.523438 9.773438 L 320.023438 9.773438 L 320.023438 261.019531 L 51.523438 261.019531 Z M 51.523438 9.773438 " clip-rule="nonzero"/></clipPath><clipPath id="6b5ca0b541"><path d="M 308.773438 261.019531 L 62.632812 261.019531 C 56.417969 261.019531 51.382812 255.984375 51.382812 249.769531 L 51.382812 20.875 C 51.382812 14.660156 56.417969 9.625 62.632812 9.625 L 308.773438 9.625 C 314.988281 9.625 320.023438 14.660156 320.023438 20.875 L 320.023438 249.769531 C 320.023438 255.984375 314.988281 261.019531 308.773438 261.019531 Z M 308.773438 261.019531 " clip-rule="nonzero"/></clipPath><clipPath id="248bf728dd"><path d="M 229.917969 148.871094 L 278.710938 148.871094 L 278.710938 197.664062 L 229.917969 197.664062 Z M 229.917969 148.871094 " clip-rule="nonzero"/></clipPath><clipPath id="79de498a1f"><path d="M 254.3125 148.871094 C 240.839844 148.871094 229.917969 159.792969 229.917969 173.265625 C 229.917969 186.742188 240.839844 197.664062 254.3125 197.664062 C 267.789062 197.664062 278.710938 186.742188 278.710938 173.265625 C 278.710938 159.792969 267.789062 148.871094 254.3125 148.871094 Z M 254.3125 148.871094 " clip-rule="nonzero"/></clipPath></defs><g clip-path="url(#663a9fd1c0)"><g clip-path="url(#6b5ca0b541)"><path stroke-linecap="butt" transform="matrix(-0.75, 0, 0, -0.75, 320.022963, 261.01973)" fill="none" stroke-linejoin="miter" d="M 14.999369 0.00026508 L 343.186911 0.00026508 C 351.473371 0.00026508 358.186913 6.713808 358.186913 15.000267 L 358.186913 320.193015 C 358.186913 328.479474 351.473371 335.193017 343.186911 335.193017 L 14.999369 335.193017 C 6.712909 335.193017 -0.000633087 328.479474 -0.000633087 320.193015 L -0.000633087 15.000267 C -0.000633087 6.713808 6.712909 0.00026508 14.999369 0.00026508 Z M 14.999369 0.00026508 " stroke="#d40808" stroke-width="16" stroke-opacity="1" stroke-miterlimit="4"/></g></g><g fill="#d40808" fill-opacity="1"><g transform="translate(66.843436, 220.211997)"><g><path d="M 132.03125 -162.09375 L 132.03125 -68.125 C 132.03125 -64.675781 131.988281 -61.304688 131.90625 -58.015625 C 131.832031 -54.734375 131.640625 -50.351562 131.328125 -44.875 C 130.847656 -35.476562 128.414062 -27.175781 124.03125 -19.96875 C 119.65625 -12.757812 113.160156 -7.082031 104.546875 -2.9375 C 95.929688 1.207031 84.890625 3.28125 71.421875 3.28125 C 51.210938 3.28125 36.367188 -1.765625 26.890625 -11.859375 C 17.421875 -21.960938 12.453125 -35.550781 11.984375 -52.625 L 11.75 -60.375 L 48.390625 -60.375 L 48.859375 -52.625 C 49.640625 -41.96875 52.144531 -34.523438 56.375 -30.296875 C 60.601562 -26.078125 66.164062 -23.96875 73.0625 -23.96875 C 79.945312 -23.96875 85.113281 -26 88.5625 -30.0625 C 92.007812 -34.132812 94.046875 -39.773438 94.671875 -46.984375 C 94.984375 -49.648438 95.140625 -52.3125 95.140625 -54.96875 C 95.140625 -57.632812 95.140625 -60.453125 95.140625 -63.421875 L 95.140625 -162.09375 Z M 132.03125 -162.09375 "/></g></g></g><path stroke-linecap="butt" transform="matrix(0.75, 0, 0, 0.75, 213.437846, 37.499998)" fill="none" stroke-linejoin="miter" d="M -0.000461979 9.000004 L 108.999545 9.000004 " stroke="#800000" stroke-width="18" stroke-opacity="1" stroke-miterlimit="4"/><g clip-path="url(#248bf728dd)"><g clip-path="url(#79de498a1f)"><path fill="#800000" d="M 229.917969 148.871094 L 278.710938 148.871094 L 278.710938 197.664062 L 229.917969 197.664062 Z M 229.917969 148.871094 " fill-opacity="1" fill-rule="nonzero"/></g></g><g fill="#d40808" fill-opacity="1"><g transform="translate(58.067028, 319.90851)"><g><path d="M 0.390625 0 L 19.171875 -46.84375 L 25.46875 -46.84375 L 44.125 0 L 35.046875 0 L 31.4375 -10.171875 L 13.234375 -10.171875 L 9.578125 0 Z M 16.078125 -17.375 L 28.578125 -17.375 L 22.34375 -34.484375 Z M 16.078125 -17.375 "/></g></g></g><g fill="#d40808" fill-opacity="1"><g transform="translate(106.799562, 319.90851)"><g><path d="M 6.03125 0 L 6.03125 -46.84375 L 17.375 -46.84375 L 29.8125 -13.53125 L 42.25 -46.84375 L 53.578125 -46.84375 L 53.578125 0 L 45.484375 0 L 45.484375 -35.046875 L 33.890625 -4.078125 L 25.734375 -4.078125 L 14.125 -35.046875 L 14.125 0 Z M 6.03125 0 "/></g></g></g><g fill="#800000" fill-opacity="1"><g transform="translate(170.63023, 319.90851)"><g><path d="M 16.84375 0.65625 C 14.457031 0.65625 12.316406 0.253906 10.421875 -0.546875 C 8.535156 -1.347656 6.914062 -2.453125 5.5625 -3.859375 C 4.21875 -5.265625 3.164062 -6.882812 2.40625 -8.71875 C 1.644531 -10.550781 1.1875 -12.507812 1.03125 -14.59375 L 9.3125 -15.546875 C 9.425781 -14.023438 9.753906 -12.625 10.296875 -11.34375 C 10.835938 -10.0625 11.644531 -9.035156 12.71875 -8.265625 C 13.789062 -7.503906 15.164062 -7.125 16.84375 -7.125 C 18.875 -7.125 20.421875 -7.503906 21.484375 -8.265625 C 22.546875 -9.035156 23.269531 -10.140625 23.65625 -11.578125 C 24.039062 -13.015625 24.234375 -14.75 24.234375 -16.78125 L 24.234375 -39.125 L 6.59375 -39.125 L 6.59375 -46.84375 L 32.65625 -46.84375 L 32.65625 -16.90625 C 32.65625 -14.40625 32.367188 -12.085938 31.796875 -9.953125 C 31.222656 -7.828125 30.3125 -5.96875 29.0625 -4.375 C 27.8125 -2.78125 26.179688 -1.539062 24.171875 -0.65625 C 22.160156 0.21875 19.71875 0.65625 16.84375 0.65625 Z M 16.84375 0.65625 "/></g></g></g><g fill="#d40808" fill-opacity="1"><g transform="translate(212.618922, 319.90851)"><g><path d="M 6.03125 0 L 6.03125 -46.84375 L 14.453125 -46.84375 L 14.453125 -22.421875 L 37.265625 -46.84375 L 48.546875 -46.84375 L 29.8125 -27.65625 L 48.90625 0 L 38.421875 0 L 23.96875 -22.015625 L 14.453125 -12.171875 L 14.453125 0 Z M 6.03125 0 "/></g></g></g><g fill="#d40808" fill-opacity="1"><g transform="translate(266.257854, 319.90851)"><g><path d="M 25.328125 0.65625 C 22.234375 0.65625 19.460938 0.238281 17.015625 -0.59375 C 14.578125 -1.4375 12.460938 -2.613281 10.671875 -4.125 C 8.878906 -5.644531 7.390625 -7.421875 6.203125 -9.453125 C 5.023438 -11.484375 4.148438 -13.6875 3.578125 -16.0625 C 3.003906 -18.4375 2.71875 -20.894531 2.71875 -23.4375 C 2.71875 -26 3.003906 -28.460938 3.578125 -30.828125 C 4.148438 -33.203125 5.023438 -35.40625 6.203125 -37.4375 C 7.390625 -39.46875 8.878906 -41.238281 10.671875 -42.75 C 12.460938 -44.269531 14.578125 -45.445312 17.015625 -46.28125 C 19.460938 -47.125 22.234375 -47.546875 25.328125 -47.546875 C 28.421875 -47.546875 31.1875 -47.125 33.625 -46.28125 C 36.070312 -45.445312 38.191406 -44.269531 39.984375 -42.75 C 41.773438 -41.238281 43.257812 -39.46875 44.4375 -37.4375 C 45.625 -35.40625 46.503906 -33.203125 47.078125 -30.828125 C 47.660156 -28.460938 47.953125 -26 47.953125 -23.4375 C 47.953125 -20.894531 47.660156 -18.4375 47.078125 -16.0625 C 46.503906 -13.6875 45.625 -11.484375 44.4375 -9.453125 C 43.257812 -7.421875 41.773438 -5.644531 39.984375 -4.125 C 38.191406 -2.613281 36.070312 -1.4375 33.625 -0.59375 C 31.1875 0.238281 28.421875 0.65625 25.328125 0.65625 Z M 25.328125 -6.796875 C 27.847656 -6.796875 29.976562 -7.242188 31.71875 -8.140625 C 33.46875 -9.035156 34.878906 -10.253906 35.953125 -11.796875 C 37.023438 -13.347656 37.8125 -15.125 38.3125 -17.125 C 38.8125 -19.125 39.0625 -21.226562 39.0625 -23.4375 C 39.0625 -25.65625 38.8125 -27.753906 38.3125 -29.734375 C 37.8125 -31.722656 37.023438 -33.492188 35.953125 -35.046875 C 34.878906 -36.597656 33.46875 -37.816406 31.71875 -38.703125 C 29.976562 -39.597656 27.847656 -40.046875 25.328125 -40.046875 C 22.804688 -40.046875 20.671875 -39.597656 18.921875 -38.703125 C 17.179688 -37.816406 15.773438 -36.597656 14.703125 -35.046875 C 13.628906 -33.492188 12.84375 -31.722656 12.34375 -29.734375 C 11.851562 -27.753906 11.609375 -25.65625 11.609375 -23.4375 C 11.609375 -21.226562 11.851562 -19.125 12.34375 -17.125 C 12.84375 -15.125 13.628906 -13.347656 14.703125 -11.796875 C 15.773438 -10.253906 17.179688 -9.035156 18.921875 -8.140625 C 20.671875 -7.242188 22.804688 -6.796875 25.328125 -6.796875 Z M 25.328125 -6.796875 "/></g></g></g><g fill="#d40808" fill-opacity="1"><g transform="translate(93.294843, 363.641543)"><g><path d="M 9.84375 0.28125 C 8.851562 0.28125 7.890625 0.144531 6.953125 -0.125 C 6.023438 -0.394531 5.175781 -0.800781 4.40625 -1.34375 C 3.644531 -1.882812 3 -2.5625 2.46875 -3.375 C 1.945312 -4.195312 1.601562 -5.148438 1.4375 -6.234375 L 3.984375 -7 C 4.097656 -5.90625 4.4375 -5 5 -4.28125 C 5.570312 -3.5625 6.285156 -3.023438 7.140625 -2.671875 C 7.992188 -2.328125 8.898438 -2.15625 9.859375 -2.15625 C 10.835938 -2.15625 11.691406 -2.3125 12.421875 -2.625 C 13.160156 -2.945312 13.738281 -3.429688 14.15625 -4.078125 C 14.582031 -4.722656 14.796875 -5.535156 14.796875 -6.515625 C 14.796875 -7.296875 14.628906 -7.96875 14.296875 -8.53125 C 13.972656 -9.101562 13.53125 -9.597656 12.96875 -10.015625 C 12.40625 -10.429688 11.773438 -10.804688 11.078125 -11.140625 C 10.378906 -11.472656 9.660156 -11.796875 8.921875 -12.109375 C 8.179688 -12.429688 7.460938 -12.773438 6.765625 -13.140625 C 6.066406 -13.503906 5.4375 -13.929688 4.875 -14.421875 C 4.3125 -14.910156 3.863281 -15.488281 3.53125 -16.15625 C 3.207031 -16.820312 3.046875 -17.617188 3.046875 -18.546875 C 3.046875 -19.484375 3.21875 -20.328125 3.5625 -21.078125 C 3.914062 -21.835938 4.394531 -22.488281 5 -23.03125 C 5.613281 -23.570312 6.316406 -23.988281 7.109375 -24.28125 C 7.898438 -24.570312 8.75 -24.71875 9.65625 -24.71875 C 11.09375 -24.71875 12.390625 -24.410156 13.546875 -23.796875 C 14.703125 -23.179688 15.660156 -22.226562 16.421875 -20.9375 L 14.359375 -19.546875 C 13.867188 -20.503906 13.203125 -21.210938 12.359375 -21.671875 C 11.515625 -22.128906 10.601562 -22.359375 9.625 -22.359375 C 8.945312 -22.359375 8.304688 -22.210938 7.703125 -21.921875 C 7.109375 -21.640625 6.625 -21.234375 6.25 -20.703125 C 5.882812 -20.179688 5.703125 -19.546875 5.703125 -18.796875 C 5.703125 -18.117188 5.863281 -17.53125 6.1875 -17.03125 C 6.519531 -16.53125 6.96875 -16.085938 7.53125 -15.703125 C 8.09375 -15.328125 8.722656 -14.972656 9.421875 -14.640625 C 10.117188 -14.316406 10.835938 -13.988281 11.578125 -13.65625 C 12.316406 -13.320312 13.035156 -12.957031 13.734375 -12.5625 C 14.429688 -12.164062 15.0625 -11.695312 15.625 -11.15625 C 16.1875 -10.625 16.628906 -10 16.953125 -9.28125 C 17.285156 -8.5625 17.453125 -7.707031 17.453125 -6.71875 C 17.453125 -5.65625 17.257812 -4.691406 16.875 -3.828125 C 16.488281 -2.960938 15.953125 -2.222656 15.265625 -1.609375 C 14.585938 -1.003906 13.785156 -0.535156 12.859375 -0.203125 C 11.929688 0.117188 10.925781 0.28125 9.84375 0.28125 Z M 9.84375 0.28125 "/></g></g></g><g fill="#d40808" fill-opacity="1"><g transform="translate(125.286051, 363.641543)"><g><path d="M 9.265625 0 L 9.265625 -22.109375 L 1.03125 -22.109375 L 1.03125 -24.359375 L 20.25 -24.359375 L 20.25 -22.109375 L 12.015625 -22.109375 L 12.015625 0 Z M 9.265625 0 "/></g></g></g><g fill="#d40808" fill-opacity="1"><g transform="translate(159.41513, 363.641543)"><g><path d="M 11.640625 0.34375 C 10.117188 0.34375 8.820312 0.09375 7.75 -0.40625 C 6.6875 -0.90625 5.816406 -1.585938 5.140625 -2.453125 C 4.460938 -3.328125 3.960938 -4.320312 3.640625 -5.4375 C 3.328125 -6.550781 3.171875 -7.71875 3.171875 -8.9375 L 3.171875 -24.359375 L 5.921875 -24.359375 L 5.921875 -9.703125 C 5.921875 -8.660156 6.007812 -7.6875 6.1875 -6.78125 C 6.375 -5.875 6.6875 -5.078125 7.125 -4.390625 C 7.5625 -3.710938 8.144531 -3.179688 8.875 -2.796875 C 9.613281 -2.421875 10.535156 -2.234375 11.640625 -2.234375 C 12.742188 -2.234375 13.664062 -2.421875 14.40625 -2.796875 C 15.15625 -3.179688 15.75 -3.710938 16.1875 -4.390625 C 16.632812 -5.078125 16.953125 -5.875 17.140625 -6.78125 C 17.335938 -7.6875 17.4375 -8.660156 17.4375 -9.703125 L 17.4375 -24.359375 L 20.171875 -24.359375 L 20.171875 -9.109375 C 20.171875 -7.835938 20.007812 -6.632812 19.6875 -5.5 C 19.363281 -4.363281 18.859375 -3.351562 18.171875 -2.46875 C 17.492188 -1.59375 16.613281 -0.90625 15.53125 -0.40625 C 14.457031 0.09375 13.160156 0.34375 11.640625 0.34375 Z M 11.640625 0.34375 "/></g></g></g><g fill="#d40808" fill-opacity="1"><g transform="translate(195.578631, 363.641543)"><g><path d="M 3.65625 0 L 3.65625 -24.359375 L 9.859375 -24.359375 C 12.503906 -24.359375 14.738281 -23.882812 16.5625 -22.9375 C 18.394531 -21.988281 19.785156 -20.59375 20.734375 -18.75 C 21.679688 -16.914062 22.15625 -14.664062 22.15625 -12 C 22.15625 -9.4375 21.671875 -7.265625 20.703125 -5.484375 C 19.742188 -3.703125 18.347656 -2.34375 16.515625 -1.40625 C 14.679688 -0.46875 12.453125 0 9.828125 0 Z M 6.390625 -2.5 L 9.421875 -2.5 C 10.828125 -2.5 12.140625 -2.6875 13.359375 -3.0625 C 14.578125 -3.445312 15.632812 -4.035156 16.53125 -4.828125 C 17.4375 -5.617188 18.144531 -6.625 18.65625 -7.84375 C 19.164062 -9.0625 19.421875 -10.507812 19.421875 -12.1875 C 19.421875 -15.34375 18.617188 -17.753906 17.015625 -19.421875 C 15.421875 -21.085938 13.015625 -21.921875 9.796875 -21.921875 L 6.390625 -21.921875 Z M 6.390625 -2.5 "/></g></g></g><g fill="#d40808" fill-opacity="1"><g transform="translate(232.67315, 363.641543)"><g><path d="M 3.65625 0 L 3.65625 -24.359375 L 6.390625 -24.359375 L 6.390625 0 Z M 3.65625 0 "/></g></g></g><g fill="#d40808" fill-opacity="1"><g transform="translate(255.561166, 363.641543)"><g><path d="M 13.03125 0.34375 C 11.550781 0.34375 10.222656 0.128906 9.046875 -0.296875 C 7.878906 -0.734375 6.859375 -1.34375 5.984375 -2.125 C 5.117188 -2.90625 4.398438 -3.816406 3.828125 -4.859375 C 3.253906 -5.910156 2.828125 -7.054688 2.546875 -8.296875 C 2.265625 -9.535156 2.125 -10.832031 2.125 -12.1875 C 2.125 -13.53125 2.265625 -14.820312 2.546875 -16.0625 C 2.828125 -17.3125 3.253906 -18.460938 3.828125 -19.515625 C 4.398438 -20.566406 5.117188 -21.484375 5.984375 -22.265625 C 6.859375 -23.046875 7.878906 -23.648438 9.046875 -24.078125 C 10.222656 -24.503906 11.550781 -24.71875 13.03125 -24.71875 C 14.53125 -24.71875 15.867188 -24.503906 17.046875 -24.078125 C 18.222656 -23.648438 19.242188 -23.046875 20.109375 -22.265625 C 20.984375 -21.484375 21.707031 -20.566406 22.28125 -19.515625 C 22.863281 -18.460938 23.296875 -17.3125 23.578125 -16.0625 C 23.859375 -14.820312 24 -13.53125 24 -12.1875 C 24 -10.832031 23.859375 -9.535156 23.578125 -8.296875 C 23.296875 -7.054688 22.863281 -5.910156 22.28125 -4.859375 C 21.707031 -3.816406 20.984375 -2.90625 20.109375 -2.125 C 19.242188 -1.34375 18.222656 -0.734375 17.046875 -0.296875 C 15.867188 0.128906 14.53125 0.34375 13.03125 0.34375 Z M 13.03125 -2.171875 C 14.519531 -2.171875 15.789062 -2.441406 16.84375 -2.984375 C 17.894531 -3.535156 18.753906 -4.28125 19.421875 -5.21875 C 20.085938 -6.164062 20.570312 -7.234375 20.875 -8.421875 C 21.1875 -9.617188 21.34375 -10.875 21.34375 -12.1875 C 21.34375 -13.488281 21.1875 -14.734375 20.875 -15.921875 C 20.570312 -17.117188 20.085938 -18.1875 19.421875 -19.125 C 18.753906 -20.070312 17.894531 -20.816406 16.84375 -21.359375 C 15.789062 -21.910156 14.519531 -22.1875 13.03125 -22.1875 C 11.570312 -22.1875 10.316406 -21.910156 9.265625 -21.359375 C 8.222656 -20.816406 7.367188 -20.070312 6.703125 -19.125 C 6.046875 -18.1875 5.5625 -17.117188 5.25 -15.921875 C 4.945312 -14.734375 4.796875 -13.488281 4.796875 -12.1875 C 4.796875 -10.875 4.945312 -9.617188 5.25 -8.421875 C 5.5625 -7.234375 6.046875 -6.164062 6.703125 -5.21875 C 7.367188 -4.28125 8.222656 -3.535156 9.265625 -2.984375 C 10.316406 -2.441406 11.570312 -2.171875 13.03125 -2.171875 Z M 13.03125 -2.171875 "/></g></g></g></svg>